<svg width="33" height="32" viewBox="0 0 33 32" fill="none" xmlns="http://www.w3.org/2000/svg">
<path fill-rule="evenodd" clip-rule="evenodd" d="M16.3066 8.42183e-06C12.4355 -0.00392608 8.68949 1.37084 5.73992 3.87794C2.79035 6.38505 0.830008 9.8606 0.210196 13.6818C-0.409616 17.5029 0.351618 21.42 2.35748 24.7309C4.36334 28.0417 7.48272 30.5301 11.1566 31.75C11.9766 31.9 12.2666 31.39 12.2666 30.96C12.2666 30.53 12.2666 29.55 12.2666 28.19C7.71659 29.18 6.75659 26 6.75659 26C6.45474 25.0144 5.81347 24.1677 4.94659 23.61C3.47659 22.61 5.06659 22.61 5.06659 22.61C5.58189 22.6828 6.07387 22.8719 6.50527 23.1629C6.93668 23.454 7.29619 23.8394 7.55659 24.29C7.77785 24.6912 8.07616 25.0448 8.43439 25.3304C8.79263 25.616 9.20374 25.8281 9.64413 25.9545C10.0845 26.0808 10.5455 26.119 11.0007 26.0667C11.4559 26.0145 11.8963 25.8729 12.2966 25.65C12.3594 24.8274 12.714 24.0542 13.2966 23.47C9.67659 23.06 5.87659 21.66 5.87659 15.47C5.85174 13.853 6.44967 12.2883 7.54659 11.1C7.05805 9.69404 7.11515 8.15589 7.70659 6.79001C7.70659 6.79001 9.07659 6.35001 12.1866 8.46001C14.8572 7.72677 17.676 7.72677 20.3466 8.46001C23.4566 6.35001 24.8166 6.79001 24.8166 6.79001C25.4163 8.14143 25.4876 9.66855 25.0166 11.07C26.1135 12.2583 26.7114 13.823 26.6866 15.44C26.6866 21.7 22.8766 23.07 19.2466 23.44C19.6358 23.8313 19.9364 24.3017 20.1279 24.8193C20.3194 25.3369 20.3974 25.8896 20.3566 26.44C20.3566 28.62 20.3566 30.38 20.3566 30.91C20.3566 31.44 20.6466 31.85 21.4766 31.69C25.1086 30.4379 28.1813 27.9425 30.1517 24.6445C32.1222 21.3465 32.8636 17.4582 32.245 13.6665C31.6264 9.87482 29.6876 6.42377 26.7712 3.92304C23.8547 1.4223 20.1483 0.0327976 16.3066 8.42183e-06V8.42183e-06Z" fill="white"/>
</svg>
