<svg width="94" height="94" viewBox="0 0 94 94" fill="none" xmlns="http://www.w3.org/2000/svg">
<path d="M46.9088 0H82.3569C89.0198 0 93.9976 4.98736 93.9976 11.6676C93.9976 35.235 93.9976 58.8016 93.9976 82.3675C93.9976 89.0243 89.0011 94 82.3242 94H11.6594C5.05499 93.9953 0.0233614 89.0594 0.0186874 82.4517C-0.00468291 58.8157 -0.00468291 35.1711 0.0186874 11.5179C0.0256985 4.92189 5.07368 0 11.6851 0H46.9088ZM78.0404 78.0699C78.0795 77.946 78.1091 77.8194 78.1292 77.6911C78.1292 68.5535 78.1923 59.4135 78.0825 50.2758C78.0714 46.9057 77.0237 43.6206 75.0817 40.8669C70.2628 34.009 57.4582 33.055 51.4894 40.9488C51.2417 41.2761 50.9893 41.6035 50.7392 41.9308L50.4611 41.8653V36.7096H38.3273V78.0535H50.4565V76.5968C50.4565 69.8675 50.3934 63.1405 50.5009 56.4136C50.5299 54.6312 50.8545 52.866 51.4614 51.19C52.5317 48.2883 55.5512 46.696 58.809 46.9579C62.1393 47.2268 64.0813 48.7794 64.8993 52.0832C65.2413 53.5164 65.4154 54.9845 65.4181 56.458C65.4719 63.185 65.4415 69.9119 65.4415 76.6413V78.0699H78.0404ZM29.7504 78.0699V36.7096H17.1304V78.0722L29.7504 78.0699ZM15.8918 23.431C15.8969 24.9229 16.3439 26.3799 17.1764 27.6177C18.0089 28.8554 19.1895 29.8185 20.5689 30.3852C21.9483 30.9519 23.4647 31.0967 24.9264 30.8013C26.3881 30.5059 27.7294 29.7836 28.7809 28.7258C29.8324 27.6679 30.5468 26.3219 30.8339 24.8578C31.1209 23.3938 30.9678 21.8775 30.3937 20.5006C29.8196 19.1236 28.8505 17.9478 27.6087 17.1219C26.3669 16.2959 24.9082 15.8567 23.417 15.86C22.4257 15.8615 21.4444 16.0587 20.5293 16.4402C19.6143 16.8218 18.7834 17.3802 18.0844 18.0834C17.3854 18.7867 16.8319 19.6211 16.4556 20.5387C16.0794 21.4563 15.8878 22.4392 15.8918 23.431Z" fill="white"/>
</svg>
