<svg xmlns="http://www.w3.org/2000/svg" viewBox="0 0 402.22 402.02"><g id="Layer_2" data-name="Layer 2"><g id="Layer_1-2" data-name="Layer 1"><path d="M200.72,0H352.4c28.51,0,49.81,21.33,49.81,49.9q0,151.19,0,302.37c0,28.47-21.38,49.75-49.95,49.75H49.89C21.63,402,.1,380.89.08,352.63Q-.07,201,.08,49.26C.11,21.05,21.71,0,50,0ZM333.93,333.89a11.08,11.08,0,0,0,.38-1.62c0-39.08.27-78.17-.2-117.25a70.2,70.2,0,0,0-12.84-40.24c-20.62-29.33-75.41-33.41-100.95.35-1.06,1.4-2.14,2.8-3.21,4.2l-1.19-.28V157H164V333.82h51.9v-6.23c0-28.78-.27-57.55.19-86.32a68.88,68.88,0,0,1,4.11-22.34c4.58-12.41,17.5-19.22,31.44-18.1,14.25,1.15,22.56,7.79,26.06,21.92a81.2,81.2,0,0,1,2.22,18.71c.23,28.77.1,57.54.1,86.32v6.11Zm-206.63,0V157h-54v176.9ZM68,100.21a32.27,32.27,0,1,0,32.2-32.38A32.25,32.25,0,0,0,68,100.21Z"/></g></g></svg>