<svg width="96" height="96" viewBox="0 0 96 96" fill="none" xmlns="http://www.w3.org/2000/svg">
<circle cx="48" cy="48" r="48" fill="black"/>
<path d="M27.8326 65.628C25.2846 65.628 23.1846 65.334 21.5326 64.746C19.9086 64.186 18.6206 63.43 17.6686 62.478C16.7446 61.526 16.1006 60.434 15.7366 59.202C15.4006 57.97 15.2326 56.696 15.2326 55.38V49.836C15.2326 49.472 15.2746 49.164 15.3586 48.912C15.4706 48.632 15.6106 48.422 15.7786 48.282L21.2386 43.704C21.3786 43.592 21.5606 43.508 21.7846 43.452C22.0086 43.368 22.2746 43.326 22.5826 43.326H28.6726C28.9806 43.326 29.2466 43.368 29.4706 43.452C29.7226 43.508 29.9326 43.606 30.1006 43.746V35.85C30.1006 35.486 30.1426 35.178 30.2266 34.926C30.3386 34.674 30.4926 34.464 30.6886 34.296L36.1066 29.718C36.2466 29.606 36.4286 29.522 36.6526 29.466C36.9046 29.382 37.1706 29.34 37.4506 29.34H44.0446C44.7166 29.34 45.2066 29.494 45.5146 29.802C45.8226 30.11 45.9766 30.6 45.9766 31.272V52.062C45.9766 53.378 45.7806 54.596 45.3886 55.716C45.0246 56.808 44.3666 57.746 43.4146 58.53L37.9966 63.108C37.0446 63.892 35.7566 64.508 34.1326 64.956C32.5086 65.404 30.4086 65.628 27.8326 65.628ZM45.5566 52.062V31.272C45.5566 30.74 45.4306 30.362 45.1786 30.138C44.9546 29.886 44.5766 29.76 44.0446 29.76H37.4506C36.9186 29.76 36.5266 29.886 36.2746 30.138C36.0506 30.362 35.9386 30.74 35.9386 31.272V50.382C35.9386 50.942 35.7706 51.418 35.4346 51.81C35.1266 52.174 34.3706 52.356 33.1666 52.356C31.8786 52.356 31.0526 52.174 30.6886 51.81C30.3526 51.418 30.1846 50.942 30.1846 50.382V45.258C30.1846 44.726 30.0586 44.348 29.8066 44.124C29.5826 43.872 29.2046 43.746 28.6726 43.746H22.5826C22.0506 43.746 21.6586 43.872 21.4066 44.124C21.1826 44.348 21.0706 44.726 21.0706 45.258V52.062C21.0706 53.35 21.2386 54.526 21.5746 55.59C21.9386 56.626 22.5686 57.522 23.4646 58.278C24.3886 59.006 25.6346 59.58 27.2026 60C28.7986 60.42 30.8146 60.63 33.2506 60.63C35.7146 60.63 37.7446 60.42 39.3406 60C40.9366 59.58 42.1826 59.006 43.0786 58.278C44.0026 57.522 44.6466 56.626 45.0106 55.59C45.3746 54.526 45.5566 53.35 45.5566 52.062ZM40.5166 33.54H40.9366V51.054C40.9366 52.706 40.4046 54.064 39.3406 55.128C38.3046 56.192 36.3026 56.724 33.3346 56.724C31.7666 56.724 30.4646 56.584 29.4286 56.304C28.4206 56.024 27.6226 55.646 27.0346 55.17C26.4466 54.666 26.0266 54.064 25.7746 53.364C25.5506 52.664 25.4386 51.894 25.4386 51.054V47.736H25.8586V51.054C25.8586 52.65 26.3766 53.924 27.4126 54.876C28.4766 55.828 30.4506 56.304 33.3346 56.304C36.1066 56.304 37.9966 55.828 39.0046 54.876C40.0126 53.896 40.5166 52.622 40.5166 51.054V33.54ZM59.5882 47.274V48.576H75.9682V47.274C75.9682 46.518 75.8982 45.818 75.7582 45.174C75.6462 44.53 75.4922 43.928 75.2962 43.368L72.3982 36.522C72.0902 35.794 71.7682 35.192 71.4322 34.716C71.0962 34.212 70.5362 33.96 69.7522 33.96H65.6362C64.7962 33.96 64.2082 34.212 63.8722 34.716C63.5362 35.192 63.2282 35.78 62.9482 36.48L60.2602 43.368C60.0642 43.928 59.8962 44.53 59.7562 45.174C59.6442 45.818 59.5882 46.518 59.5882 47.274ZM66.3082 38.58C66.4202 38.328 66.5322 38.146 66.6442 38.034C66.7842 37.922 66.9382 37.866 67.1062 37.866H68.1562C68.3242 37.866 68.4642 37.922 68.5762 38.034C68.7162 38.146 68.8422 38.328 68.9542 38.58L70.9282 44.964H64.3342L66.3082 38.58ZM75.9682 56.22V48.996H59.5882V56.22H59.1682V47.274C59.1682 46.49 59.2242 45.776 59.3362 45.132C59.4762 44.46 59.6582 43.816 59.8822 43.2L62.5702 36.312C62.8782 35.528 63.2282 34.87 63.6202 34.338C64.0122 33.806 64.6842 33.54 65.6362 33.54H69.7522C70.6762 33.54 71.3202 33.806 71.6842 34.338C72.0762 34.87 72.4402 35.542 72.7762 36.354L75.6742 43.2C75.8982 43.816 76.0662 44.46 76.1782 45.132C76.3182 45.776 76.3882 46.49 76.3882 47.274V56.22H75.9682ZM63.9142 58.488V52.608H71.3482V58.488C71.3482 59.02 71.4742 59.412 71.7262 59.664C72.0062 59.888 72.4262 60 72.9862 60H79.3282C79.8602 60 80.2382 59.888 80.4622 59.664C80.7142 59.412 80.8402 59.02 80.8402 58.488V47.4C80.8402 46.56 80.7002 45.594 80.4202 44.502C80.1682 43.41 79.7622 42.136 79.2022 40.68L75.5482 31.146C75.3802 30.67 75.1142 30.32 74.7502 30.096C74.4142 29.872 73.9802 29.76 73.4482 29.76H62.1502C61.5902 29.76 61.1282 29.872 60.7642 30.096C60.4282 30.32 60.1762 30.67 60.0082 31.146L56.3542 40.68C55.7942 42.136 55.3742 43.41 55.0942 44.502C54.8422 45.594 54.7162 46.56 54.7162 47.4V58.488C54.7162 59.02 54.8282 59.412 55.0522 59.664C55.3042 59.888 55.6962 60 56.2282 60H62.4022C62.9342 60 63.3122 59.888 63.5362 59.664C63.7882 59.412 63.9142 59.02 63.9142 58.488ZM58.2862 64.578C58.1742 64.69 57.9922 64.788 57.7402 64.872C57.5162 64.956 57.2642 64.998 56.9842 64.998H50.8102C50.1382 64.998 49.6482 64.844 49.3402 64.536C49.0322 64.228 48.8782 63.738 48.8782 63.066V51.978C48.8782 51.11 49.0042 50.13 49.2562 49.038C49.5362 47.918 49.9702 46.602 50.5582 45.09L54.1702 35.598C54.2542 35.346 54.3522 35.136 54.4642 34.968C54.6042 34.772 54.7442 34.604 54.8842 34.464L54.9262 34.422L60.3022 29.928C60.5262 29.732 60.7922 29.592 61.1002 29.508C61.4082 29.396 61.7582 29.34 62.1502 29.34H73.4482C74.0922 29.34 74.6102 29.48 75.0022 29.76C75.4222 30.012 75.7302 30.418 75.9262 30.978L79.5802 40.512C80.1682 42.024 80.5882 43.34 80.8402 44.46C81.1202 45.552 81.2602 46.532 81.2602 47.4V58.488C81.2602 58.852 81.2042 59.16 81.0922 59.412C81.0082 59.664 80.8682 59.874 80.6722 60.042L75.2122 64.578C75.1002 64.69 74.9182 64.788 74.6662 64.872C74.4422 64.956 74.1902 64.998 73.9102 64.998H67.5682C66.8682 64.998 66.3502 64.83 66.0142 64.494C65.6782 64.186 65.5102 63.71 65.5102 63.066V57.606H64.3342V58.488C64.3342 58.852 64.2782 59.16 64.1662 59.412C64.0822 59.664 63.9422 59.874 63.7462 60.042L58.2862 64.578Z" fill="white"/>
</svg>
