<svg width="151" height="83" viewBox="0 0 151 83" fill="none" xmlns="http://www.w3.org/2000/svg">
<path d="M29.2522 82.73C23.4889 82.73 18.7389 82.065 15.0022 80.735C11.3289 79.4683 8.41554 77.7583 6.26221 75.605C4.17221 73.4517 2.71554 70.9817 1.89221 68.195C1.13221 65.4083 0.752207 62.5267 0.752207 59.55V47.01C0.752207 46.1867 0.847207 45.49 1.03721 44.92C1.29054 44.2867 1.60721 43.8117 1.98721 43.495L14.3372 33.14C14.6539 32.8867 15.0655 32.6967 15.5722 32.57C16.0789 32.38 16.6805 32.285 17.3772 32.285H31.1522C31.8489 32.285 32.4505 32.38 32.9572 32.57C33.5272 32.6967 34.0022 32.9183 34.3822 33.235V15.375C34.3822 14.5517 34.4772 13.855 34.6672 13.285C34.9205 12.715 35.2689 12.24 35.7122 11.86L47.9672 1.505C48.2839 1.25166 48.6955 1.06166 49.2022 0.934995C49.7722 0.744997 50.3739 0.649998 51.0072 0.649998H65.9222C67.4422 0.649998 68.5505 0.998331 69.2472 1.695C69.9439 2.39167 70.2922 3.5 70.2922 5.02V52.045C70.2922 55.0217 69.8489 57.7767 68.9622 60.31C68.1389 62.78 66.6505 64.9017 64.4972 66.675L52.2422 77.03C50.0889 78.8033 47.1755 80.1967 43.5022 81.21C39.8289 82.2233 35.0789 82.73 29.2522 82.73ZM69.3422 52.045V5.02C69.3422 3.81667 69.0572 2.96167 68.4872 2.455C67.9805 1.885 67.1255 1.6 65.9222 1.6H51.0072C49.8039 1.6 48.9172 1.885 48.3472 2.455C47.8405 2.96167 47.5872 3.81667 47.5872 5.02V48.245C47.5872 49.5117 47.2072 50.5883 46.4472 51.475C45.7505 52.2983 44.0405 52.71 41.3172 52.71C38.4039 52.71 36.5355 52.2983 35.7122 51.475C34.9522 50.5883 34.5722 49.5117 34.5722 48.245V36.655C34.5722 35.4517 34.2872 34.5967 33.7172 34.09C33.2105 33.52 32.3555 33.235 31.1522 33.235H17.3772C16.1739 33.235 15.2872 33.52 14.7172 34.09C14.2105 34.5967 13.9572 35.4517 13.9572 36.655V52.045C13.9572 54.9583 14.3372 57.6183 15.0972 60.025C15.9205 62.3683 17.3455 64.395 19.3722 66.105C21.4622 67.7517 24.2805 69.05 27.8272 70C31.4372 70.95 35.9972 71.425 41.5072 71.425C47.0805 71.425 51.6722 70.95 55.2822 70C58.8922 69.05 61.7105 67.7517 63.7372 66.105C65.8272 64.395 67.2839 62.3683 68.1072 60.025C68.9305 57.6183 69.3422 54.9583 69.3422 52.045ZM57.9422 10.15H58.8922V49.765C58.8922 53.5017 57.6889 56.5733 55.2822 58.98C52.9389 61.3867 48.4105 62.59 41.6972 62.59C38.1505 62.59 35.2055 62.2733 32.8622 61.64C30.5822 61.0067 28.7772 60.1517 27.4472 59.075C26.1172 57.935 25.1672 56.5733 24.5972 54.99C24.0905 53.4067 23.8372 51.665 23.8372 49.765V42.26H24.7872V49.765C24.7872 53.375 25.9589 56.2567 28.3022 58.41C30.7089 60.5633 35.1739 61.64 41.6972 61.64C47.9672 61.64 52.2422 60.5633 54.5222 58.41C56.8022 56.1933 57.9422 53.3117 57.9422 49.765V10.15ZM101.08 41.215V44.16H138.13V41.215C138.13 39.505 137.972 37.9217 137.655 36.465C137.402 35.0083 137.054 33.6467 136.61 32.38L130.055 16.895C129.359 15.2483 128.63 13.8867 127.87 12.81C127.11 11.67 125.844 11.1 124.07 11.1H114.76C112.86 11.1 111.53 11.67 110.77 12.81C110.01 13.8867 109.314 15.2167 108.68 16.8L102.6 32.38C102.157 33.6467 101.777 35.0083 101.46 36.465C101.207 37.9217 101.08 39.505 101.08 41.215ZM116.28 21.55C116.534 20.98 116.787 20.5683 117.04 20.315C117.357 20.0617 117.705 19.935 118.085 19.935H120.46C120.84 19.935 121.157 20.0617 121.41 20.315C121.727 20.5683 122.012 20.98 122.265 21.55L126.73 35.99H111.815L116.28 21.55ZM138.13 61.45V45.11H101.08V61.45H100.13V41.215C100.13 39.4417 100.257 37.8267 100.51 36.37C100.827 34.85 101.239 33.3933 101.745 32L107.825 16.42C108.522 14.6467 109.314 13.1583 110.2 11.955C111.087 10.7517 112.607 10.15 114.76 10.15H124.07C126.16 10.15 127.617 10.7517 128.44 11.955C129.327 13.1583 130.15 14.6783 130.91 16.515L137.465 32C137.972 33.3933 138.352 34.85 138.605 36.37C138.922 37.8267 139.08 39.4417 139.08 41.215V61.45H138.13ZM110.865 66.58V53.28H127.68V66.58C127.68 67.7833 127.965 68.67 128.535 69.24C129.169 69.7467 130.119 70 131.385 70H145.73C146.934 70 147.789 69.7467 148.295 69.24C148.865 68.67 149.15 67.7833 149.15 66.58V41.5C149.15 39.6 148.834 37.415 148.2 34.945C147.63 32.475 146.712 29.5933 145.445 26.3L137.18 4.735C136.8 3.65833 136.199 2.86666 135.375 2.36C134.615 1.85333 133.634 1.6 132.43 1.6H106.875C105.609 1.6 104.564 1.85333 103.74 2.36C102.98 2.86666 102.41 3.65833 102.03 4.735L93.7654 26.3C92.4987 29.5933 91.5487 32.475 90.9154 34.945C90.3454 37.415 90.0604 39.6 90.0604 41.5V66.58C90.0604 67.7833 90.3137 68.67 90.8204 69.24C91.3904 69.7467 92.277 70 93.4804 70H107.445C108.649 70 109.504 69.7467 110.01 69.24C110.58 68.67 110.865 67.7833 110.865 66.58ZM98.1354 80.355C97.882 80.6083 97.4704 80.83 96.9004 81.02C96.3937 81.21 95.8237 81.305 95.1904 81.305H81.2254C79.7054 81.305 78.597 80.9567 77.9004 80.26C77.2037 79.5633 76.8554 78.455 76.8554 76.935V51.855C76.8554 49.8917 77.1404 47.675 77.7104 45.205C78.3437 42.6717 79.3254 39.695 80.6554 36.275L88.8254 14.805C89.0154 14.235 89.237 13.76 89.4904 13.38C89.807 12.9367 90.1237 12.5567 90.4404 12.24L90.5354 12.145L102.695 1.98C103.202 1.53666 103.804 1.22 104.5 1.03C105.197 0.776665 105.989 0.649998 106.875 0.649998H132.43C133.887 0.649998 135.059 0.966665 135.945 1.6C136.895 2.17 137.592 3.08833 138.035 4.355L146.3 25.92C147.63 29.34 148.58 32.3167 149.15 34.85C149.784 37.32 150.1 39.5367 150.1 41.5V66.58C150.1 67.4033 149.974 68.1 149.72 68.67C149.53 69.24 149.214 69.715 148.77 70.095L136.42 80.355C136.167 80.6083 135.755 80.83 135.185 81.02C134.679 81.21 134.109 81.305 133.475 81.305H119.13C117.547 81.305 116.375 80.925 115.615 80.165C114.855 79.4683 114.475 78.3917 114.475 76.935V64.585H111.815V66.58C111.815 67.4033 111.689 68.1 111.435 68.67C111.245 69.24 110.929 69.715 110.485 70.095L98.1354 80.355Z" fill="white"/>
</svg>
